<svg width="1600" height="80" viewBox="0 0 1600 80" fill="none" xmlns="http://www.w3.org/2000/svg">
<rect y="40" width="40" height="40" fill="white"/>
<rect x="40" width="40" height="40" fill="white"/>
<rect x="80" y="40" width="40" height="40" fill="white"/>
<rect x="120" width="40" height="40" fill="white"/>
<rect x="160" y="40" width="40" height="40" fill="white"/>
<rect x="200" width="40" height="40" fill="white"/>
<rect x="240" y="40" width="40" height="40" fill="white"/>
<rect x="280" width="40" height="40" fill="white"/>
<rect x="320" y="40" width="40" height="40" fill="white"/>
<rect x="360" width="40" height="40" fill="white"/>
<rect x="400" y="40" width="40" height="40" fill="white"/>
<rect x="440" width="40" height="40" fill="white"/>
<rect x="480" y="40" width="40" height="40" fill="white"/>
<rect x="520" width="40" height="40" fill="white"/>
<rect x="560" y="40" width="40" height="40" fill="white"/>
<rect x="600" width="40" height="40" fill="white"/>
<rect x="640" y="40" width="40" height="40" fill="white"/>
<rect x="680" width="40" height="40" fill="white"/>
<rect x="720" y="40" width="40" height="40" fill="white"/>
<rect x="760" width="40" height="40" fill="white"/>
<rect x="800" y="40" width="40" height="40" fill="white"/>
<rect x="840" width="40" height="40" fill="white"/>
<rect x="880" y="40" width="40" height="40" fill="white"/>
<rect x="920" width="40" height="40" fill="white"/>
<rect x="960" y="40" width="40" height="40" fill="white"/>
<rect x="1000" width="40" height="40" fill="white"/>
<rect x="1040" y="40" width="40" height="40" fill="white"/>
<rect x="1080" width="40" height="40" fill="white"/>
<rect x="1120" y="40" width="40" height="40" fill="white"/>
<rect x="1160" width="40" height="40" fill="white"/>
<rect x="1200" y="40" width="40" height="40" fill="white"/>
<rect x="1240" width="40" height="40" fill="white"/>
<rect x="1280" y="40" width="40" height="40" fill="white"/>
<rect x="1320" width="40" height="40" fill="white"/>
<rect x="1360" y="40" width="40" height="40" fill="white"/>
<rect x="1400" width="40" height="40" fill="white"/>
<rect x="1440" y="40" width="40" height="40" fill="white"/>
<rect x="1480" width="40" height="40" fill="white"/>
<rect x="1520" y="40" width="40" height="40" fill="white"/>
<rect x="1560" width="40" height="40" fill="white"/>
</svg>
