<svg width="3200" height="80" viewBox="0 0 3200 80" fill="none" xmlns="http://www.w3.org/2000/svg">
<rect y="40" width="40" height="40" fill="#9C9EAC"/>
<rect x="40" width="40" height="40" fill="#9C9EAC"/>
<rect x="80" y="40" width="40" height="40" fill="#9C9EAC"/>
<rect x="120" width="40" height="40" fill="#9C9EAC"/>
<rect x="160" y="40" width="40" height="40" fill="#9C9EAC"/>
<rect x="200" width="40" height="40" fill="#9C9EAC"/>
<rect x="240" y="40" width="40" height="40" fill="#9C9EAC"/>
<rect x="280" width="40" height="40" fill="#9C9EAC"/>
<rect x="320" y="40" width="40" height="40" fill="#9C9EAC"/>
<rect x="360" width="40" height="40" fill="#9C9EAC"/>
<rect x="400" y="40" width="40" height="40" fill="#9C9EAC"/>
<rect x="440" width="40" height="40" fill="#9C9EAC"/>
<rect x="480" y="40" width="40" height="40" fill="#9C9EAC"/>
<rect x="520" width="40" height="40" fill="#9C9EAC"/>
<rect x="560" y="40" width="40" height="40" fill="#9C9EAC"/>
<rect x="600" width="40" height="40" fill="#9C9EAC"/>
<rect x="640" y="40" width="40" height="40" fill="#9C9EAC"/>
<rect x="680" width="40" height="40" fill="#9C9EAC"/>
<rect x="720" y="40" width="40" height="40" fill="#9C9EAC"/>
<rect x="760" width="40" height="40" fill="#9C9EAC"/>
<rect x="800" y="40" width="40" height="40" fill="#9C9EAC"/>
<rect x="840" width="40" height="40" fill="#9C9EAC"/>
<rect x="880" y="40" width="40" height="40" fill="#9C9EAC"/>
<rect x="920" width="40" height="40" fill="#9C9EAC"/>
<rect x="960" y="40" width="40" height="40" fill="#9C9EAC"/>
<rect x="1000" width="40" height="40" fill="#9C9EAC"/>
<rect x="1040" y="40" width="40" height="40" fill="#9C9EAC"/>
<rect x="1080" width="40" height="40" fill="#9C9EAC"/>
<rect x="1120" y="40" width="40" height="40" fill="#9C9EAC"/>
<rect x="1160" width="40" height="40" fill="#9C9EAC"/>
<rect x="1200" y="40" width="40" height="40" fill="#9C9EAC"/>
<rect x="1240" width="40" height="40" fill="#9C9EAC"/>
<rect x="1280" y="40" width="40" height="40" fill="#9C9EAC"/>
<rect x="1320" width="40" height="40" fill="#9C9EAC"/>
<rect x="1360" y="40" width="40" height="40" fill="#9C9EAC"/>
<rect x="1400" width="40" height="40" fill="#9C9EAC"/>
<rect x="1440" y="40" width="40" height="40" fill="#9C9EAC"/>
<rect x="1480" width="40" height="40" fill="#9C9EAC"/>
<rect x="1520" y="40" width="40" height="40" fill="#9C9EAC"/>
<rect x="1560" width="40" height="40" fill="#9C9EAC"/>
<rect x="1600" y="40" width="40" height="40" fill="#9C9EAC"/>
<rect x="1640" width="40" height="40" fill="#9C9EAC"/>
<rect x="1680" y="40" width="40" height="40" fill="#9C9EAC"/>
<rect x="1720" width="40" height="40" fill="#9C9EAC"/>
<rect x="1760" y="40" width="40" height="40" fill="#9C9EAC"/>
<rect x="1800" width="40" height="40" fill="#9C9EAC"/>
<rect x="1840" y="40" width="40" height="40" fill="#9C9EAC"/>
<rect x="1880" width="40" height="40" fill="#9C9EAC"/>
<rect x="1920" y="40" width="40" height="40" fill="#9C9EAC"/>
<rect x="1960" width="40" height="40" fill="#9C9EAC"/>
<rect x="2000" y="40" width="40" height="40" fill="#9C9EAC"/>
<rect x="2040" width="40" height="40" fill="#9C9EAC"/>
<rect x="2080" y="40" width="40" height="40" fill="#9C9EAC"/>
<rect x="2120" width="40" height="40" fill="#9C9EAC"/>
<rect x="2160" y="40" width="40" height="40" fill="#9C9EAC"/>
<rect x="2200" width="40" height="40" fill="#9C9EAC"/>
<rect x="2240" y="40" width="40" height="40" fill="#9C9EAC"/>
<rect x="2280" width="40" height="40" fill="#9C9EAC"/>
<rect x="2320" y="40" width="40" height="40" fill="#9C9EAC"/>
<rect x="2360" width="40" height="40" fill="#9C9EAC"/>
<rect x="2400" y="40" width="40" height="40" fill="#9C9EAC"/>
<rect x="2440" width="40" height="40" fill="#9C9EAC"/>
<rect x="2480" y="40" width="40" height="40" fill="#9C9EAC"/>
<rect x="2520" width="40" height="40" fill="#9C9EAC"/>
<rect x="2560" y="40" width="40" height="40" fill="#9C9EAC"/>
<rect x="2600" width="40" height="40" fill="#9C9EAC"/>
<rect x="2640" y="40" width="40" height="40" fill="#9C9EAC"/>
<rect x="2680" width="40" height="40" fill="#9C9EAC"/>
<rect x="2720" y="40" width="40" height="40" fill="#9C9EAC"/>
<rect x="2760" width="40" height="40" fill="#9C9EAC"/>
<rect x="2800" y="40" width="40" height="40" fill="#9C9EAC"/>
<rect x="2840" width="40" height="40" fill="#9C9EAC"/>
<rect x="2880" y="40" width="40" height="40" fill="#9C9EAC"/>
<rect x="2920" width="40" height="40" fill="#9C9EAC"/>
<rect x="2960" y="40" width="40" height="40" fill="#9C9EAC"/>
<rect x="3000" width="40" height="40" fill="#9C9EAC"/>
<rect x="3040" y="40" width="40" height="40" fill="#9C9EAC"/>
<rect x="3080" width="40" height="40" fill="#9C9EAC"/>
<rect x="3120" y="40" width="40" height="40" fill="#9C9EAC"/>
<rect x="3160" width="40" height="40" fill="#9C9EAC"/>
</svg>
